<?xml version="1.0" standalone="no"?>
<!DOCTYPE svg PUBLIC "-//W3C//DTD SVG 20010904//EN"
 "http://www.w3.org/TR/2001/REC-SVG-20010904/DTD/svg10.dtd">
<svg version="1.0" xmlns="http://www.w3.org/2000/svg"
 width="256.000000pt" height="256.000000pt" viewBox="0 0 256.000000 256.000000"
 preserveAspectRatio="xMidYMid meet">
<metadata>
Created by potrace 1.16, written by Peter Selinger 2001-2019
</metadata>
<g transform="translate(0.000000,256.000000) scale(0.100000,-0.100000)"
fill="#000000" stroke="none">
<path d="M1130 2534 c-310 -39 -513 -127 -703 -304 -383 -358 -486 -872 -271
-1356 98 -221 341 -466 564 -566 101 -45 101 -45 175 -67 248 -71 583 -46 776
59 12 6 37 -12 105 -79 105 -103 201 -160 320 -189 257 -64 465 -13 439 109
-5 21 -22 40 -61 67 -82 55 -179 135 -208 169 -14 17 -39 59 -56 94 -42 89
-41 149 6 287 20 59 40 112 44 117 21 28 84 200 105 289 33 133 33 237 0 405
-52 266 -136 423 -329 616 -128 127 -217 190 -360 252 -148 65 -417 113 -546
97z m355 -183 c44 -12 130 -46 190 -76 182 -89 310 -206 415 -378 133 -219
183 -521 122 -727 -11 -36 -47 -128 -81 -206 -102 -236 -123 -368 -80 -497 30
-89 69 -145 166 -237 l84 -80 -33 0 c-143 1 -354 101 -433 205 l-27 35 52 52
c104 107 152 257 116 366 -20 60 -92 133 -150 152 -98 32 -200 -14 -251 -115
-27 -52 -30 -68 -29 -144 0 -69 7 -104 31 -174 l31 -88 -21 -8 c-12 -5 -38
-15 -58 -24 -20 -8 -80 -25 -133 -37 -84 -20 -115 -22 -239 -17 -161 6 -240
24 -374 87 -303 142 -501 395 -568 729 -26 126 -17 343 19 466 110 372 422
660 791 731 107 20 358 12 460 -15z m339 -1553 c24 -33 20 -101 -8 -157 -26
-51 -72 -111 -86 -111 -12 0 -40 112 -40 164 0 76 34 126 86 126 23 0 38 -7
48 -22z"/>
<path d="M765 1915 c-5 -1 -30 -8 -55 -16 -53 -15 -123 -60 -147 -95 -10 -13
-26 -34 -36 -46 -28 -35 -40 -97 -34 -189 4 -75 9 -95 37 -145 19 -31 41 -65
49 -74 9 -9 30 -32 46 -51 17 -19 71 -70 119 -114 49 -44 105 -96 125 -116 20
-20 88 -82 151 -139 63 -57 126 -114 139 -127 14 -13 36 -23 52 -23 32 0 52
16 165 125 40 39 103 99 141 135 253 239 333 322 333 345 0 8 5 17 10 20 27
16 43 83 44 175 1 95 0 96 -39 160 -81 128 -204 189 -363 177 -75 -5 -182 -40
-182 -58 0 -5 -5 -9 -11 -9 -14 0 -52 -40 -86 -91 -29 -44 -39 -48 -48 -19 -3
10 -36 46 -72 80 -52 47 -80 64 -131 80 -56 17 -172 26 -207 15z m167 -117
c83 -19 144 -86 192 -210 32 -82 41 -97 63 -101 34 -6 63 2 63 19 0 19 52 145
70 169 8 11 36 41 62 66 39 38 58 48 108 59 210 45 365 -132 274 -313 -15 -29
-33 -59 -40 -67 -27 -30 -171 -169 -459 -442 l-70 -67 -50 45 c-28 25 -80 73
-116 107 -36 34 -114 107 -175 162 -214 196 -248 244 -248 355 -1 55 4 71 27
107 34 50 95 94 151 110 55 15 85 15 148 1z"/>
</g>
</svg>
