<?xml version="1.0" standalone="no"?>
<!DOCTYPE svg PUBLIC "-//W3C//DTD SVG 20010904//EN"
 "http://www.w3.org/TR/2001/REC-SVG-20010904/DTD/svg10.dtd">
<svg version="1.0" xmlns="http://www.w3.org/2000/svg"
 width="127.000000pt" height="127.000000pt" viewBox="0 0 127.000000 127.000000"
 preserveAspectRatio="xMidYMid meet">

<g transform="translate(0.000000,127.000000) scale(0.100000,-0.100000)"
fill="#000000" stroke="none">
<path d="M1074 1213 c-110 -341 -382 -723 -695 -975 -88 -71 -259 -188 -274
-188 -3 0 -14 -7 -23 -16 -15 -15 -14 -16 8 -9 36 11 190 88 273 137 69 40
290 193 318 220 8 8 28 24 44 36 51 40 234 222 301 300 l64 75 0 219 c0 120
-2 218 -5 218 -3 0 -8 -8 -11 -17z"/>
<path d="M1012 545 l-72 -74 0 -236 0 -235 75 0 75 0 0 310 c0 171 -1 310 -3
310 -2 0 -36 -34 -75 -75z"/>
<path d="M793 340 c-39 -33 -73 -64 -75 -70 -1 -5 -2 -68 0 -140 l3 -130 75 0
74 0 0 200 c0 110 -1 200 -3 200 -2 0 -35 -27 -74 -60z"/>
<path d="M558 163 l-68 -47 0 -58 0 -58 80 0 80 0 0 105 c0 77 -3 105 -12 105
-7 0 -43 -21 -80 -47z"/>
<path d="M390 59 c-8 -5 -35 -20 -60 -34 l-45 -25 68 0 67 0 0 35 c0 36 -5 40
-30 24z"/>
</g>
</svg>
